<svg width="97" height="59" viewBox="0 0 97 59" fill="none" xmlns="http://www.w3.org/2000/svg">
<path d="M22.532 51H13.264C10.688 51 9.428 50.02 9.428 48.06V33.332H12.172V47.444C12.172 48.004 12.62 48.256 13.572 48.256H22.532V51ZM36.8768 51H29.2328C26.6568 51 25.3968 50.02 25.3968 48.06V33.332H28.1408V47.444C28.1408 48.004 28.5888 48.256 29.5408 48.256H36.5408C37.4928 48.256 37.9688 48.004 37.9688 47.444V33.332H40.7128V48.06C40.7128 50.02 39.4248 51 36.8768 51ZM46.3243 36.888V51H43.5803V36.272C43.5803 34.312 44.8403 33.332 47.4163 33.332H55.0603C57.6083 33.332 58.8963 34.312 58.8963 36.272V51H56.1523V36.888C56.1523 36.356 55.6763 36.076 54.7243 36.076H47.7243C46.7723 36.076 46.3243 36.356 46.3243 36.888ZM73.2439 33.332C75.7919 33.332 77.0799 34.312 77.0799 36.272V51H74.3359V43.524H64.5079V51H61.7639V40.78H74.3359V36.888C74.3359 36.356 73.8599 36.076 72.9079 36.076H61.7639C61.7639 35.068 62.0719 34.368 62.7159 33.948C63.3319 33.556 64.3119 33.332 65.5999 33.332H73.2439ZM91.5675 43.524H90.4475V47.416C90.4475 47.976 90.9235 48.256 91.8755 48.256H95.2635V51H91.5395C88.9635 51 87.7035 50.02 87.7035 48.032V43.524H82.6915V51H79.9475V40.78H91.0915C92.0435 40.78 92.5195 40.556 92.5195 40.052V36.916C92.5195 36.356 92.0435 36.076 91.0915 36.076H79.9475V33.332H91.4275C93.9755 33.332 95.2635 34.34 95.2635 36.3V40.612C95.2635 42.544 94.0315 43.524 91.5675 43.524Z" fill="#1E00FF"/>
<path fill-rule="evenodd" clip-rule="evenodd" d="M86.7483 30.2098C85.6816 27.1119 84.268 24.1192 82.5533 21.305C82.2129 21.7517 81.9005 22.2208 81.6186 22.7099C82.9946 25.0765 84.1468 27.5863 85.0501 30.2098H86.7483ZM74.4935 13.5974C74.9151 13.2886 75.3176 12.9553 75.6988 12.5995C72.8098 9.72632 69.5384 7.25323 65.9718 5.31949C56.2887 0.0695105 44.9886 -1.35767 34.3042 1.31992C23.6198 3.99751 14.3282 10.5851 8.26534 19.7812C2.20247 28.9772 -0.249298 40.125 1.5 51H3C1.31599 40.5309 3.79986 29.538 9.63645 20.6851C15.473 11.8323 24.4178 5.49059 34.7034 2.91293C44.989 0.335277 55.8673 1.70919 65.1891 6.76322C68.6157 8.62105 71.7403 10.9265 74.4935 13.5974Z" fill="#1E00FF"/>
<path d="M93 16.1275C85.7501 16.127 79.8729 10.2499 79.8725 3C79.8723 6.78924 78.2667 10.2034 75.6988 12.5995C78.3202 15.2066 80.6268 18.1431 82.5533 21.305C84.9514 18.1586 88.7386 16.1279 93 16.1275Z" fill="#FF6F00"/>
<path d="M79.8699 29H79.8752C79.919 26.7122 80.5479 24.5677 81.6186 22.7099C79.669 19.3568 77.2702 16.2912 74.4935 13.5974C72.3857 15.1412 69.8001 16.0713 67 16.1248L67.0001 16.1302C74.0475 16.2649 79.7351 21.9526 79.8699 29Z" fill="#FF6F00"/>
<path d="M82.5533 21.305C80.6268 18.1431 78.3202 15.2066 75.6988 12.5995C75.3176 12.9553 74.9151 13.2886 74.4935 13.5974C77.2702 16.2912 79.669 19.3568 81.6186 22.7099C81.9005 22.2208 82.2129 21.7517 82.5533 21.305Z" fill="#FF6F00"/>
</svg>
